<svg width="24" height="24" viewBox="0 0 24 24" fill="none" xmlns="http://www.w3.org/2000/svg">
<path fill-rule="evenodd" clip-rule="evenodd" d="M18.9633 9.13796C18.9511 8.84629 18.9177 8.55463 18.863 8.26296C18.8083 7.97129 18.7324 7.69178 18.6352 7.42442C18.4529 6.95046 18.1825 6.53423 17.824 6.17572C17.4655 5.81721 17.0553 5.54681 16.5935 5.36452C16.314 5.2673 16.0314 5.19134 15.7458 5.13665C15.4603 5.08197 15.1716 5.05462 14.88 5.05462C14.5032 5.03032 14.166 5.01513 13.8682 5.00905C13.5705 5.00298 12.9477 4.99994 11.9998 4.99994C11.0518 4.99994 10.426 5.00298 10.1222 5.00905C9.81833 5.01513 9.48413 5.03032 9.11955 5.05462C8.82788 5.05462 8.53925 5.08197 8.25366 5.13665C7.96807 5.19134 7.68552 5.2673 7.40601 5.36452C6.9442 5.54681 6.53405 5.81721 6.17554 6.17572C5.81703 6.53423 5.54663 6.95046 5.36434 7.42442C5.26712 7.69178 5.19116 7.96825 5.13647 8.25384C5.08179 8.53943 5.04837 8.82806 5.03621 9.11973C5.02406 9.49647 5.01495 9.8337 5.00887 10.1314C5.00279 10.4292 4.99976 11.052 4.99976 11.9999C4.99976 12.9479 4.99976 13.5737 4.99976 13.8775C4.99976 14.1814 5.01191 14.5216 5.03621 14.8984C5.04837 15.19 5.08179 15.4756 5.13647 15.7551C5.19116 16.0347 5.26712 16.3142 5.36434 16.5937C5.54663 17.0676 5.81703 17.4808 6.17554 17.8333C6.53405 18.1857 6.95027 18.4531 7.42423 18.6354C7.6916 18.7447 7.96807 18.8298 8.25366 18.8906C8.53925 18.9513 8.82788 18.9817 9.11955 18.9817C9.49629 19.006 9.83352 19.0212 10.1313 19.0273C10.429 19.0334 11.0518 19.0364 11.9998 19.0364C12.9477 19.0364 13.5735 19.0334 13.8774 19.0273C14.1812 19.0212 14.5154 19.006 14.88 18.9817C15.1716 18.9817 15.4603 18.9544 15.7458 18.8997C16.0314 18.845 16.314 18.769 16.5935 18.6718C17.0553 18.4895 17.4655 18.2191 17.824 17.8606C18.1825 17.5021 18.4529 17.0859 18.6352 16.6119C18.7324 16.3446 18.8083 16.0681 18.863 15.7825C18.9177 15.4969 18.9511 15.2083 18.9633 14.9166C18.9755 14.5399 18.9846 14.2026 18.9906 13.9049C18.9967 13.6071 18.9998 12.9843 18.9998 12.0364C18.9998 11.0763 18.9998 10.4474 18.9998 10.1497C18.9998 9.85193 18.9876 9.5147 18.9633 9.13796ZM11.9999 15.5911C11.5017 15.5911 11.0338 15.4999 10.5963 15.3176C10.1588 15.1232 9.77598 14.865 9.44786 14.5429C9.11973 14.2209 8.86452 13.8411 8.68223 13.4036C8.48779 12.9661 8.39056 12.4982 8.39056 11.9999C8.39056 11.5017 8.48779 11.0338 8.68223 10.5963C8.86452 10.1588 9.11973 9.77902 9.44786 9.45697C9.77598 9.13492 10.1588 8.87667 10.5963 8.68223C11.0338 8.49993 11.5017 8.40879 11.9999 8.40879C12.4982 8.40879 12.96 8.49993 13.3854 8.68223C13.8229 8.87667 14.2057 9.13492 14.5338 9.45697C14.8619 9.77902 15.1171 10.1588 15.2994 10.5963C15.4939 11.0338 15.5911 11.5017 15.5911 11.9999C15.5911 12.4982 15.4939 12.9661 15.2994 13.4036C15.1171 13.8411 14.8619 14.2209 14.5338 14.5429C14.2057 14.865 13.8229 15.1232 13.3854 15.3176C12.96 15.4999 12.4982 15.5911 11.9999 15.5911ZM15.7365 9.11981C15.5056 9.11981 15.3081 9.03778 15.1441 8.87372C14.98 8.70965 14.898 8.51217 14.898 8.28126C14.898 8.03821 14.98 7.83769 15.1441 7.6797C15.3081 7.52172 15.5056 7.44272 15.7365 7.44272C15.9674 7.44272 16.1649 7.52172 16.329 7.6797C16.493 7.83769 16.5751 8.03821 16.5751 8.28126C16.5751 8.51217 16.493 8.70965 16.329 8.87372C16.1649 9.03778 15.9674 9.11981 15.7365 9.11981ZM14.3328 12C14.3328 12.6441 14.105 13.194 13.6492 13.6497C13.1935 14.1055 12.6436 14.3333 11.9995 14.3333C11.3554 14.3333 10.8055 14.1055 10.3497 13.6497C9.89401 13.194 9.66615 12.6441 9.66615 12C9.66615 11.3559 9.89401 10.806 10.3497 10.3502C10.8055 9.89451 11.3554 9.66665 11.9995 9.66665C12.6436 9.66665 13.1935 9.89451 13.6492 10.3502C14.105 10.806 14.3328 11.3559 14.3328 12Z" fill="white"/>
</svg>
