<svg width="18" height="18" viewBox="0 0 18 18" fill="none" xmlns="http://www.w3.org/2000/svg">
<g opacity="0.7">
<path d="M17.7287 11.1773C16.5266 15.9988 11.6433 18.933 6.82127 17.7307C2.00122 16.5286 -0.933056 11.645 0.269567 6.82384C1.47106 2.00182 6.3544 -0.932737 11.175 0.269323C15.9968 1.47138 18.9308 6.35556 17.7287 11.1773Z" fill="#0E0D0F"/>
<path fill-rule="evenodd" clip-rule="evenodd" d="M12.9666 7.71739C13.1457 6.51983 12.2339 5.87605 10.9871 5.44659L11.3916 3.82434L10.4041 3.57825L10.0104 5.15774C9.75077 5.09306 9.48415 5.03202 9.21921 4.97156L9.61577 3.38165L8.62887 3.13556L8.22415 4.75724C8.00927 4.70831 7.79834 4.65993 7.59359 4.60903L7.59471 4.60396L6.2329 4.26393L5.97022 5.31862C5.97022 5.31862 6.70287 5.48652 6.6874 5.49693C7.08734 5.59677 7.15962 5.86143 7.14753 6.07124L6.68684 7.91933C6.7144 7.92636 6.75012 7.93649 6.7895 7.95224L6.75606 7.94389L6.75603 7.94388C6.73313 7.93814 6.70939 7.93219 6.68515 7.92636L6.0394 10.5153C5.99047 10.6368 5.86643 10.819 5.58687 10.7498C5.59672 10.7642 4.86912 10.5707 4.86912 10.5707L4.37891 11.701L5.66394 12.0214C5.80746 12.0573 5.94926 12.0943 6.08959 12.1309C6.18299 12.1553 6.27574 12.1794 6.3679 12.203L5.95925 13.8439L6.94559 14.0899L7.35031 12.4666C7.61974 12.5397 7.88131 12.6072 8.13724 12.6708L7.73393 14.2865L8.7214 14.5326L9.13005 12.8949C10.8139 13.2136 12.0801 13.085 12.613 11.5621C13.0425 10.3358 12.5917 9.62848 11.7057 9.16723C12.3509 9.01845 12.8369 8.59405 12.9666 7.71739ZM10.7096 10.8811C10.4297 12.0062 8.66868 11.541 7.86295 11.3282C7.79045 11.3091 7.72569 11.292 7.67044 11.2783L8.21269 9.10448C8.27996 9.12127 8.36215 9.13971 8.45526 9.16061L8.45529 9.16061C9.28865 9.34761 10.9965 9.73083 10.7096 10.8811ZM8.62344 8.15267C9.29522 8.33194 10.7605 8.72299 11.0158 7.70048C11.2764 6.65459 9.85224 6.33932 9.15671 6.18534C9.07847 6.16802 9.00945 6.15275 8.95308 6.1387L8.46146 8.11026C8.5079 8.12183 8.56239 8.13637 8.62344 8.15267Z" fill="white"/>
</g>
</svg>
